# xmcd
#
# Track frame offsets: 
#        150
#        20138
#        42149
#        62137
#        84299
#        100167
#        115800
#        131776
#        148915
#        166612
#
# Disc length: 2463 seconds
#
# Revision: 0
# Processed by: cddbd v1.5.2PL0 Copyright (c) Steve Scherf et al.
# Submitted via: ExactAudioCopy v0.99pb4
#
DISCID=83099d0a
DTITLE=Various Artist - Bed Of Roses
DYEAR=2000
DGENRE=Folk
TTITLE0=Maria Maria (Santana)
TTITLE1=Lola Lola (Ricky Martin)
TTITLE2=Never Be The Same Again (Melanie C.)
TTITLE3=Only The Loot Can Make Me Happy (R. Kelly)
TTITLE4=Rise (Gabrielle)
TTITLE5=Then You Look At Me (Celine Dion)
TTITLE6=Bag It Up (Geri Adams and Chicane)
TTITLE7=Don't Give Up (Bryan Adams and Chicane)
TTITLE8=Show Me The Meaning Of Being Lonely (Backstreet Boys)
TTITLE9=Marcie Bella (Ricky Martin)
EXTD=
EXTT0=
EXTT1=
EXTT2=
EXTT3=
EXTT4=
EXTT5=
EXTT6=
EXTT7=
EXTT8=
EXTT9=
PLAYORDER=
